<?xml version="1.0" encoding="utf-8"?>
<svg height="505" version="1.2" viewBox="0 0 263 505" width="263" xmlns="http://www.w3.org/2000/svg">
<title>54aa8696-b63a-4ecc-a36c-a33bacdc8fde</title>

<path class="s0" d="m134.9 47c6.6-0.1 10 0.3 10.8 1.2 1 1 1.2 8.2 0.8 57.8l59 0.5v23l-58.5 0.5v82h5.7c3.2 0 9.4 0.9 13.8 2 4.4 1.1 11.8 3.9 16.5 6.2 6.1 3 10.6 6.2 16 11.4 4.5 4.2 8.8 9.5 10.7 13 1.7 3.3 3.8 8.6 4.7 11.9 0.9 3.5 1.6 10.2 1.6 16 0 5.5-0.7 12.9-1.5 16.5-0.9 3.6-2.8 10.1-4.2 14.5-1.8 5.4-2.7 10.1-2.8 14.5 0 5.2 0.6 7.8 3.1 13 1.7 3.6 5.4 10.1 8.3 14.5 2.9 4.4 6.7 11.1 8.6 15 1.8 3.9 4.3 10.4 5.6 14.5 2.1 6.4 2.4 9.6 2.4 22 0 13.4-0.2 15.2-3 23.5-1.7 5.3-4.8 11.8-7.6 16-2.6 3.9-7.1 9.3-10 12-3 2.8-8.1 6.7-11.4 8.7-3.3 2-9.4 5-13.5 6.7-4.1 1.6-10.2 3.7-13.5 4.5-3.3 0.9-10.9 2.3-17 3.2-8.5 1.3-15.3 1.5-29.5 1.1-13.3-0.4-21.3-1.2-28.5-2.7-5.5-1.2-12.7-3.1-16-4.2-3.3-1.1-9.6-3.9-14-6.1-6.1-3.1-10.2-6.3-17.1-13.2-7.6-7.5-9.8-10.4-13.1-17.5-2.3-4.7-4.7-11-5.4-14-0.8-3.2-1.4-10.8-1.4-18 0-8.9 0.6-14.4 1.8-19 1-3.6 3.1-9.6 4.7-13.5 1.6-3.9 5.9-11.7 9.6-17.5 3.7-5.8 7.8-13 9.2-16 1.4-3 2.7-8 3-11 0.4-4.4-0.3-7.9-3.2-17.5-2-6.6-4.1-14.7-4.6-18-0.5-3.3-1-8.9-1-12.5 0-3.6 0.7-9.6 1.6-13.5 0.8-3.8 3.1-10.1 5.2-13.9 2.4-4.5 6.1-9.2 10.7-13.5 3.9-3.6 10.1-8.2 14-10.3 3.8-2 10.2-4.6 14-5.8 3.8-1.1 10.7-2.4 23.5-3.5v-81.5h-59l0.5-23.5 58.5-0.5-0.2-28.3c-0.2-23.2 0.1-28.5 1.2-29.5 0.9-0.7 5-1.2 10.9-1.2zm-34.9 187.5c-2.5 0.9-6.7 3-9.4 4.8-2.7 1.8-6.9 5.4-9.3 8.2-2.4 2.7-5.4 7.5-6.5 10.5-1.6 4.3-2.1 7.8-2.1 15.5 0 8 0.6 11.8 2.8 19 1.5 4.9 3.4 11.7 4.2 15 1 3.9 1.3 8.7 1 14-0.3 4.4-1.4 10.5-2.5 13.5-1.2 3-4.9 9.8-8.3 15-3.4 5.2-7.7 12.4-9.4 16-1.8 3.6-4 8.7-5 11.5-0.9 2.7-2.1 8.1-2.7 12-0.9 5.2-0.8 9.2 0.1 15.5 0.7 5.4 2.2 10.9 4.2 15 1.7 3.6 4.8 8.5 6.8 11 2.1 2.5 6.4 6.3 9.7 8.5 3.2 2.2 8.6 5 11.9 6.3 3.3 1.4 10 3.5 15 4.8 4.9 1.2 15.1 2.8 22.5 3.4 10.2 0.9 16.6 0.9 26 0 6.9-0.6 16.8-2.3 22-3.6 5.2-1.4 12.7-4 16.5-5.8 3.8-1.9 9.5-5.4 12.5-7.8 3-2.5 7.2-6.9 9.2-9.9 2.1-3 4.7-8.1 5.8-11.4 1.2-3.4 2.4-9.9 2.7-15 0.5-7.3 0.2-10.6-1.6-17.5-1.2-4.7-3.3-11-4.7-14-1.4-3-5.8-10.7-9.9-17-4.1-6.3-8.4-14.2-9.6-17.5-1.8-4.7-2.3-8.2-2.3-16.5 0-9.2 0.4-11.7 3.1-20 1.7-5.2 3.7-12.6 4.4-16.5 0.6-3.9 0.9-9.7 0.5-13.3-0.3-3.4-1.6-8.8-2.8-12-1.5-3.9-3.9-7.4-7.5-11-3.2-3.1-8.2-6.6-12.6-8.7-3.9-1.9-10.7-4.2-15-5-4.2-0.8-8.9-1.5-10.5-1.5h-2.7l0.5 46c4.3 2.2 7.4 4.8 9.7 7.2 2.3 2.4 5.3 6.8 6.7 9.8 2 4.3 2.6 7.1 2.6 13 0 5.7-0.6 8.7-2.3 12.5-1.3 2.7-3.8 6.6-5.5 8.5l-3.1 3.5-0.1 54.5c13.4-0.1 14.8 0.3 16.5 2.1 1.3 1.4 2 3.5 2 6.3 0 2.3-0.8 5.4-1.8 6.9l-1.7 2.7c-65.8 0.1-68.6-0.1-70.2-1.7-0.9-1-2-3.2-2.4-4.8-0.3-1.6-0.4-4.2 0-5.8 0.3-1.5 1.3-3.4 2.2-4.2 1.1-1 3.7-1.5 8.5-1.5h6.9v-53c-6-7.4-8.6-11.1-9.6-13-1.5-2.7-1.9-5.7-1.9-13 0-7.8 0.4-10.2 2.1-13.5 1.2-2.2 4.4-6.2 7-8.9 2.7-2.6 6.1-5.4 7.6-6.2l2.8-1.4 0.5-46c-5.4 0.1-9.7 0.8-13 1.5-3.3 0.7-8 2.1-10.5 3zm22.5 150l8.5 0.5-0.4-45c-5.5-2.6-7.4-3.6-7.8-3.8-0.3-0.2-0.5 10.6-0.5 24zm16-44v44l8.5 0.5c0-38-0.1-49-0.2-49-0.1 0-2.1 1-4.3 2.3z" fill-rule="evenodd" id="Path 0"/>
</svg>